<?xml version="1.0" standalone="no"?>
<svg viewBox="0 0 200 200" xmlns="http://www.w3.org/2000/svg">
  <path fill="#F1C21B" d="M18.6,-34.6C27.5,-27,40.7,-29,54.1,-24.9C67.5,-20.7,81.1,-10.4,77.2,-2.3C73.3,5.8,51.8,11.7,43.1,24C34.4,36.2,38.5,55,33.4,62.6C28.4,70.2,14.2,66.8,3.7,60.4C-6.9,54.1,-13.7,44.9,-22.5,39.4C-31.3,33.9,-42.1,32.2,-54.8,26.3C-67.6,20.3,-82.4,10.2,-81.9,0.3C-81.4,-9.6,-65.7,-19.2,-56,-30.4C-46.3,-41.7,-42.6,-54.5,-34.3,-62.5C-25.9,-70.5,-13,-73.7,-4.1,-66.6C4.8,-59.5,9.6,-42.2,18.6,-34.6Z" transform="translate(100 100)" />
</svg>
