<?xml version="1.0" standalone="no"?>
<svg viewBox="0 0 200 200" xmlns="http://www.w3.org/2000/svg">
  <path fill="#FF0066" d="M31.4,-45.7C45.3,-46.3,64.6,-47.3,75.2,-39.8C85.8,-32.3,87.7,-16.1,78,-5.6C68.3,4.9,47,9.9,36.3,17.3C25.7,24.7,25.7,34.5,21.4,39.2C17.1,43.9,8.5,43.3,-0.1,43.6C-8.8,43.8,-17.7,44.9,-24.7,41.8C-31.6,38.7,-36.7,31.4,-46.6,23.8C-56.5,16.1,-71.2,8.1,-73.3,-1.2C-75.4,-10.4,-64.8,-20.9,-53.9,-26.8C-43,-32.8,-31.8,-34.2,-22.7,-36.5C-13.7,-38.8,-6.8,-42,0.9,-43.6C8.7,-45.2,17.4,-45.2,31.4,-45.7Z" transform="translate(100 100)" />
</svg>
