<?xml version="1.0" standalone="no"?><svg xmlns:xlink="http://www.w3.org/1999/xlink" xmlns="http://www.w3.org/2000/svg" viewBox="0 0 1646 274.327973357016" preserveAspectRatio="xMaxYMax slice"><g transform="scale(1.4618117229129663)"><rect x="0" y="0" width="1126" height="187.66666666666666" fill="#ffffff"/><rect x="0" y="0" width="93.83" height="93.83" fill="#ff527b"/><path d="M 0 0 A 93.83 93.83 0 0 1  93.83 93.83 L 0 0 A 93.83 93.83 0 0 0 93.83 93.83" fill="#34e2e2"/><rect x="93.83" y="0" width="93.83" height="93.83" fill="#ffffff"/><rect x="93.83" y="0" width="93.83" height="93.83" fill="#21dfdf"/><rect x="187.67" y="0" width="93.83" height="93.83" fill="#ff4d77"/><path d="M 187.67 93.83 A 93.83 93.83 0 0 0 281.5 0 L 187.67 0" fill="#ff698d"/><rect x="281.5" y="0" width="93.83" height="93.83" fill="#4ae5e5"/><polygon points="281.5,0 375.33,0 281.5,93.83" fill="#ffc8d5"/><rect x="375.33" y="0" width="93.83" height="93.83" fill="#1940e1"/><path d="M 375.33 93.83 A 93.83 93.83 0 0 0 469.15999999999997 0 L 375.33 0" fill="#d6f9f9"/><rect x="469.17" y="0" width="93.83" height="93.83" fill="#b8c4f6"/><polygon points="563,0 563,93.83 469.17,93.83" fill="#d6f9f9"/><rect x="563" y="0" width="93.83" height="93.83" fill="#8599ef"/><rect x="563" y="0" width="93.83" height="93.83" fill="#35e2e2"/><rect x="656.83" y="0" width="93.83" height="93.83" fill="#21dfdf"/><rect x="656.83" y="0" width="93.83" height="93.83" fill="#44e4e4"/><rect x="750.67" y="0" width="93.83" height="93.83" fill="#758ced"/><polygon points="844.5,0 844.5,93.83 750.67,93.83" fill="#ff5f85"/><rect x="844.5" y="0" width="93.83" height="93.83" fill="#fff3f6"/><polygon points="938.33,0 938.33,93.83 844.5,93.83" fill="#ffe7ec"/><rect x="938.33" y="0" width="93.83" height="93.83" fill="#70ebeb"/><path d="M 938.33 93.83 A 93.83 93.83 0 0 0 1032.16 0 L 938.33 0" fill="#ffd2dd"/><rect x="1032.17" y="0" width="93.83" height="93.83" fill="#c0f6f6"/><polygon points="1032.17,0 1126,0 1126,93.83" fill="#b8f5f5"/><rect x="0" y="93.83" width="93.83" height="93.83" fill="#3658e5"/><polygon points="0,93.83 93.83,93.83 93.83,187.66" fill="#c4f7f7"/><rect x="93.83" y="93.83" width="93.83" height="93.83" fill="#fffafb"/><path d="M 93.83 187.66 A 93.83 93.83 0 0 0 187.66 93.83 L 93.83 93.83" fill="#aff4f4"/><rect x="187.67" y="93.83" width="93.83" height="93.83" fill="#ffc5d3"/><polygon points="187.67,93.83 281.5,187.66 187.67,187.66" fill="#5673e9"/><rect x="281.5" y="93.83" width="93.83" height="93.83" fill="#aebcf4"/><polygon points="281.5,93.83 375.33,93.83 281.5,187.66" fill="#ffbbcb"/><rect x="375.33" y="93.83" width="93.83" height="93.83" fill="#ffa2b8"/><path d="M 375.33 93.83 A 93.83 93.83 0 0 1  469.15999999999997 187.66 L 375.33 93.83 A 93.83 93.83 0 0 0 469.15999999999997 187.66" fill="#8b9ef0"/><rect x="469.17" y="93.83" width="93.83" height="93.83" fill="#3859e5"/><path d="M 469.17 93.83 A 93.83 93.83 0 0 0 563 187.66 L 563 93.83" fill="#ff6c8f"/><rect x="563" y="93.83" width="93.83" height="93.83" fill="#ff6c8f"/><polygon points="656.83,93.83 656.83,187.66 563,187.66" fill="#aab8f4"/><rect x="656.83" y="93.83" width="93.83" height="93.83" fill="#2146e2"/><polygon points="750.6600000000001,93.83 750.6600000000001,187.66 656.83,187.66" fill="#80eded"/><rect x="750.67" y="93.83" width="93.83" height="93.83" fill="#59e7e7"/><polygon points="844.5,93.83 844.5,187.66 750.67,187.66" fill="#ffaabe"/><rect x="844.5" y="93.83" width="93.83" height="93.83" fill="#ff9ab2"/><polygon points="844.5,93.83 938.33,187.66 844.5,187.66" fill="#37e2e2"/><rect x="938.33" y="93.83" width="93.83" height="93.83" fill="#2c50e4"/><polygon points="938.33,93.83 1032.16,93.83 1032.16,187.66" fill="#3ae3e3"/><rect x="1032.17" y="93.83" width="93.83" height="93.83" fill="#ffffff"/><rect x="1032.17" y="93.83" width="93.83" height="93.83" fill="#5571e9"/></g></svg>