<?xml version="1.0" standalone="no"?><svg xmlns="http://www.w3.org/2000/svg" viewBox="0 0 1440 320"><path fill="#0099ff" fill-opacity="1" d="M0,96L20,96C40,96,80,96,120,85.3C160,75,200,53,240,48C280,43,320,53,360,74.7C400,96,440,128,480,160C520,192,560,224,600,250.7C640,277,680,299,720,288C760,277,800,235,840,186.7C880,139,920,85,960,64C1000,43,1040,53,1080,96C1120,139,1160,213,1200,208C1240,203,1280,117,1320,106.7C1360,96,1400,160,1420,192L1440,224L1440,320L1420,320C1400,320,1360,320,1320,320C1280,320,1240,320,1200,320C1160,320,1120,320,1080,320C1040,320,1000,320,960,320C920,320,880,320,840,320C800,320,760,320,720,320C680,320,640,320,600,320C560,320,520,320,480,320C440,320,400,320,360,320C320,320,280,320,240,320C200,320,160,320,120,320C80,320,40,320,20,320L0,320Z"></path></svg>