<?xml version="1.0" standalone="no"?><svg xmlns:xlink="http://www.w3.org/1999/xlink" xmlns="http://www.w3.org/2000/svg" viewBox="0 0 1520 790.4044877472691" preserveAspectRatio="xMaxYMax slice"><g transform="scale(1.4024210215529969)"><rect x="0" y="0" width="1083.8461538461538" height="563.6" fill="#000000"/><rect x="130.06153846153848" y="0" width="43.353846153846156" height="43.353846153846156" fill="#000000"/><path d="M 130.06 0 A 21.68 21.68 0 0 1  151.74 21.68 L 130.06 0 A 21.68 21.68 0 0 0 151.74 21.68" fill="#9e213f"/><path d="M 151.74 21.68 A 21.68 21.68 0 0 1  173.42000000000002 0 L 151.74 21.68 A 21.68 21.68 0 0 0 173.42000000000002 0" fill="#aa2343"/><path d="M 346.83 0 A 43.35 43.35 0 0 1  390.18 43.35 L 346.83 0 A 43.35 43.35 0 0 0 390.18 43.35" fill="#891d36"/><rect x="563.6" y="0" width="43.353846153846156" height="43.353846153846156" fill="#000000"/><path d="M 563.6 43.36 A 21.68 21.68 0 0 1  585.28 21.68 L 563.6 43.36 A 21.68 21.68 0 0 0 585.28 21.68" fill="#010206"/><rect x="650.3076923076924" y="0" width="43.353846153846156" height="43.353846153846156" fill="#000000"/><path d="M 671.98 21.68 A 21.68 21.68 0 0 1  693.66 43.36 L 671.98 21.68 A 21.68 21.68 0 0 0 693.66 43.36" fill="#03091f"/><path d="M 86.71 86.7 A 43.35 43.35 0 0 1  130.06 43.35 L 86.71 86.7 A 43.35 43.35 0 0 0 130.06 43.35" fill="#061039"/><rect x="390.1846153846154" y="43.353846153846156" width="43.353846153846156" height="43.353846153846156" fill="#000000"/><path d="M 411.86 65.03 A 21.68 21.68 0 0 1  433.54 43.35 L 411.86 65.03 A 21.68 21.68 0 0 0 433.54 43.35" fill="#050d2f"/><path d="M 476.89 86.7 A 43.35 43.35 0 0 1  520.24 43.35 L 476.89 86.7 A 43.35 43.35 0 0 0 520.24 43.35" fill="#c4294e"/><rect x="606.9538461538461" y="43.353846153846156" width="43.353846153846156" height="43.353846153846156" fill="#000000"/><path d="M 737.02 86.7 A 43.35 43.35 0 0 1  780.37 43.35 L 737.02 86.7 A 43.35 43.35 0 0 0 780.37 43.35" fill="#931e3a"/><path d="M 1040.49 43.35 A 43.35 43.35 0 0 1  1083.84 86.7 L 1040.49 43.35 A 43.35 43.35 0 0 0 1083.84 86.7" fill="#fc3464"/><path d="M 173.42 86.71 A 43.35 43.35 0 0 1  216.76999999999998 130.06 L 173.42 86.71 A 43.35 43.35 0 0 0 216.76999999999998 130.06" fill="#7c1a31"/><path d="M 606.95 86.71 A 43.35 43.35 0 0 1  650.3000000000001 130.06 L 606.95 86.71 A 43.35 43.35 0 0 0 650.3000000000001 130.06" fill="#dd2e57"/><path d="M 650.31 86.71 A 43.35 43.35 0 0 1  693.66 130.06 L 650.31 86.71 A 43.35 43.35 0 0 0 693.66 130.06" fill="#08154b"/><path d="M 693.66 130.06 A 43.35 43.35 0 0 1  737.01 86.71 L 693.66 130.06 A 43.35 43.35 0 0 0 737.01 86.71" fill="#010001"/><rect x="737.0153846153846" y="86.70769230769231" width="43.353846153846156" height="43.353846153846156" fill="#000000"/><path d="M 737.02 108.38999999999999 A 21.68 21.68 0 0 1  758.6999999999999 86.71 L 737.02 108.38999999999999 A 21.68 21.68 0 0 0 758.6999999999999 86.71" fill="#040a25"/><rect x="910.4307692307693" y="86.70769230769231" width="43.353846153846156" height="43.353846153846156" fill="#000000"/><path d="M 910.43 130.06 A 21.68 21.68 0 0 1  932.1099999999999 108.38 L 910.43 130.06 A 21.68 21.68 0 0 0 932.1099999999999 108.38" fill="#0e247f"/><path d="M 932.11 108.38 A 21.68 21.68 0 0 1  953.79 130.06 L 932.11 108.38 A 21.68 21.68 0 0 0 953.79 130.06" fill="#490f1d"/><path d="M 0 130.06 A 43.35 43.35 0 0 1  43.35 173.41 L 0 130.06 A 43.35 43.35 0 0 0 43.35 173.41" fill="#4a0f1d"/><rect x="130.06153846153848" y="130.06153846153848" width="43.353846153846156" height="43.353846153846156" fill="#000000"/><path d="M 130.06 151.74 A 21.68 21.68 0 0 1  151.74 130.06 L 130.06 151.74 A 21.68 21.68 0 0 0 151.74 130.06" fill="#781930"/><path d="M 130.06 173.42000000000002 A 21.68 21.68 0 0 1  151.74 151.74 L 130.06 173.42000000000002 A 21.68 21.68 0 0 0 151.74 151.74" fill="#040921"/><path d="M 173.42 130.06 A 43.35 43.35 0 0 1  216.76999999999998 173.41 L 173.42 130.06 A 43.35 43.35 0 0 0 216.76999999999998 173.41" fill="#173dda"/><path d="M 260.12 173.41 A 43.35 43.35 0 0 1  303.47 130.06 L 260.12 173.41 A 43.35 43.35 0 0 0 303.47 130.06" fill="#102a97"/><path d="M 303.48 173.41 A 43.35 43.35 0 0 1  346.83000000000004 130.06 L 303.48 173.41 A 43.35 43.35 0 0 0 346.83000000000004 130.06" fill="#08164e"/><rect x="433.53846153846155" y="130.06153846153848" width="43.353846153846156" height="43.353846153846156" fill="#000000"/><path d="M 520.25 130.06 A 43.35 43.35 0 0 1  563.6 173.41 L 520.25 130.06 A 43.35 43.35 0 0 0 563.6 173.41" fill="#ba274a"/><path d="M 606.95 173.41 A 43.35 43.35 0 0 1  650.3000000000001 130.06 L 606.95 173.41 A 43.35 43.35 0 0 0 650.3000000000001 130.06" fill="#040a22"/><rect x="650.3076923076924" y="130.06153846153848" width="43.353846153846156" height="43.353846153846156" fill="#000000"/><path d="M 650.31 151.74 A 21.68 21.68 0 0 1  671.9899999999999 130.06 L 650.31 151.74 A 21.68 21.68 0 0 0 671.9899999999999 130.06" fill="#091753"/><rect x="693.6615384615385" y="130.06153846153848" width="43.353846153846156" height="43.353846153846156" fill="#000000"/><path d="M 715.34 151.74 A 21.68 21.68 0 0 1  737.02 130.06 L 715.34 151.74 A 21.68 21.68 0 0 0 737.02 130.06" fill="#173ddb"/><path d="M 693.66 151.74 A 21.68 21.68 0 0 1  715.3399999999999 173.42000000000002 L 693.66 151.74 A 21.68 21.68 0 0 0 715.3399999999999 173.42000000000002" fill="#0c2071"/><path d="M 715.34 173.42000000000002 A 21.68 21.68 0 0 1  737.02 151.74 L 715.34 173.42000000000002 A 21.68 21.68 0 0 0 737.02 151.74" fill="#0f278a"/><path d="M 780.37 130.06 A 43.35 43.35 0 0 1  823.72 173.41 L 780.37 130.06 A 43.35 43.35 0 0 0 823.72 173.41" fill="#0e2586"/><path d="M 823.72 130.06 A 43.35 43.35 0 0 1  867.07 173.41 L 823.72 130.06 A 43.35 43.35 0 0 0 867.07 173.41" fill="#a52242"/><rect x="867.0769230769231" y="130.06153846153848" width="43.353846153846156" height="43.353846153846156" fill="#000000"/><path d="M 867.08 151.74 A 21.68 21.68 0 0 1  888.76 130.06 L 867.08 151.74 A 21.68 21.68 0 0 0 888.76 130.06" fill="#69162a"/><path d="M 888.75 151.74 A 21.68 21.68 0 0 1  910.43 130.06 L 888.75 151.74 A 21.68 21.68 0 0 0 910.43 130.06" fill="#040922"/><path d="M 888.75 173.42000000000002 A 21.68 21.68 0 0 1  910.43 151.74 L 888.75 173.42000000000002 A 21.68 21.68 0 0 0 910.43 151.74" fill="#e5305b"/><rect x="43.353846153846156" y="173.41538461538462" width="43.353846153846156" height="43.353846153846156" fill="#000000"/><path d="M 43.35 173.42 A 21.68 21.68 0 0 1  65.03 195.1 L 43.35 173.42 A 21.68 21.68 0 0 0 65.03 195.1" fill="#07113e"/><path d="M 43.35 216.77 A 21.68 21.68 0 0 1  65.03 195.09 L 43.35 216.77 A 21.68 21.68 0 0 0 65.03 195.09" fill="#4f101f"/><path d="M 65.03 195.09 A 21.68 21.68 0 0 1  86.71000000000001 216.77 L 65.03 195.09 A 21.68 21.68 0 0 0 86.71000000000001 216.77" fill="#f1325f"/><path d="M 173.42 173.42 A 43.35 43.35 0 0 1  216.76999999999998 216.76999999999998 L 173.42 173.42 A 43.35 43.35 0 0 0 216.76999999999998 216.76999999999998" fill="#112da1"/><rect x="216.76923076923077" y="173.41538461538462" width="43.353846153846156" height="43.353846153846156" fill="#000000"/><path d="M 216.77 195.09 A 21.68 21.68 0 0 1  238.45000000000002 216.77 L 216.77 195.09 A 21.68 21.68 0 0 0 238.45000000000002 216.77" fill="#0c1f6d"/><path d="M 390.18 216.76999999999998 A 43.35 43.35 0 0 1  433.53000000000003 173.42 L 390.18 216.76999999999998 A 43.35 43.35 0 0 0 433.53000000000003 173.42" fill="#020510"/><rect x="606.9538461538461" y="173.41538461538462" width="43.353846153846156" height="43.353846153846156" fill="#000000"/><path d="M 628.63 195.09 A 21.68 21.68 0 0 1  650.31 216.77 L 628.63 195.09 A 21.68 21.68 0 0 0 650.31 216.77" fill="#01040e"/><path d="M 693.66 173.42 A 43.35 43.35 0 0 1  737.01 216.76999999999998 L 693.66 173.42 A 43.35 43.35 0 0 0 737.01 216.76999999999998" fill="#020617"/><rect x="823.723076923077" y="173.41538461538462" width="43.353846153846156" height="43.353846153846156" fill="#000000"/><path d="M 845.4 173.42 A 21.68 21.68 0 0 1  867.0799999999999 195.1 L 845.4 173.42 A 21.68 21.68 0 0 0 867.0799999999999 195.1" fill="#9c213e"/><path d="M 823.72 195.09 A 21.68 21.68 0 0 1  845.4 216.77 L 823.72 195.09 A 21.68 21.68 0 0 0 845.4 216.77" fill="#861c35"/><path d="M 1040.49 173.42 A 43.35 43.35 0 0 1  1083.84 216.76999999999998 L 1040.49 173.42 A 43.35 43.35 0 0 0 1083.84 216.76999999999998" fill="#0e2585"/><rect x="86.70769230769231" y="216.76923076923077" width="43.353846153846156" height="43.353846153846156" fill="#000000"/><path d="M 108.38 216.77 A 21.68 21.68 0 0 1  130.06 238.45000000000002 L 108.38 216.77 A 21.68 21.68 0 0 0 130.06 238.45000000000002" fill="#010206"/><path d="M 108.38 238.45 A 21.68 21.68 0 0 1  130.06 260.13 L 108.38 238.45 A 21.68 21.68 0 0 0 130.06 260.13" fill="#102992"/><rect x="130.06153846153848" y="216.76923076923077" width="43.353846153846156" height="43.353846153846156" fill="#000000"/><path d="M 130.06 238.45 A 21.68 21.68 0 0 1  151.74 260.13 L 130.06 238.45 A 21.68 21.68 0 0 0 151.74 260.13" fill="#0a1a5e"/><path d="M 216.77 260.12 A 43.35 43.35 0 0 1  260.12 216.77 L 216.77 260.12 A 43.35 43.35 0 0 0 260.12 216.77" fill="#000001"/><path d="M 606.95 260.12 A 43.35 43.35 0 0 1  650.3000000000001 216.77 L 606.95 260.12 A 43.35 43.35 0 0 0 650.3000000000001 216.77" fill="#d52c54"/><path d="M 650.31 260.12 A 43.35 43.35 0 0 1  693.66 216.77 L 650.31 260.12 A 43.35 43.35 0 0 0 693.66 216.77" fill="#071240"/><path d="M 693.66 216.77 A 43.35 43.35 0 0 1  737.01 260.12 L 693.66 216.77 A 43.35 43.35 0 0 0 737.01 260.12" fill="#821b33"/><rect x="737.0153846153846" y="216.76923076923077" width="43.353846153846156" height="43.353846153846156" fill="#000000"/><path d="M 758.69 216.77 A 21.68 21.68 0 0 1  780.37 238.45000000000002 L 758.69 216.77 A 21.68 21.68 0 0 0 780.37 238.45000000000002" fill="#0d2279"/><path d="M 758.69 260.13 A 21.68 21.68 0 0 1  780.37 238.45 L 758.69 260.13 A 21.68 21.68 0 0 0 780.37 238.45" fill="#fa3463"/><path d="M 910.43 216.77 A 43.35 43.35 0 0 1  953.78 260.12 L 910.43 216.77 A 43.35 43.35 0 0 0 953.78 260.12" fill="#9f213f"/><rect x="997.1384615384616" y="216.76923076923077" width="43.353846153846156" height="43.353846153846156" fill="#000000"/><rect x="0" y="260.12307692307695" width="43.353846153846156" height="43.353846153846156" fill="#000000"/><path d="M 21.68 260.12 A 21.68 21.68 0 0 1  43.36 281.8 L 21.68 260.12 A 21.68 21.68 0 0 0 43.36 281.8" fill="#020511"/><path d="M 86.71 260.12 A 43.35 43.35 0 0 1  130.06 303.47 L 86.71 260.12 A 43.35 43.35 0 0 0 130.06 303.47" fill="#020410"/><path d="M 173.42 260.12 A 43.35 43.35 0 0 1  216.76999999999998 303.47 L 173.42 260.12 A 43.35 43.35 0 0 0 216.76999999999998 303.47" fill="#a12140"/><rect x="216.76923076923077" y="260.12307692307695" width="43.353846153846156" height="43.353846153846156" fill="#000000"/><path d="M 216.77 260.12 A 21.68 21.68 0 0 1  238.45000000000002 281.8 L 216.77 260.12 A 21.68 21.68 0 0 0 238.45000000000002 281.8" fill="#0b1d68"/><path d="M 216.77 303.48 A 21.68 21.68 0 0 1  238.45000000000002 281.8 L 216.77 303.48 A 21.68 21.68 0 0 0 238.45000000000002 281.8" fill="#122fa8"/><path d="M 238.45 303.48 A 21.68 21.68 0 0 1  260.13 281.8 L 238.45 303.48 A 21.68 21.68 0 0 0 260.13 281.8" fill="#a82342"/><rect x="303.4769230769231" y="260.12307692307695" width="43.353846153846156" height="43.353846153846156" fill="#000000"/><path d="M 303.48 281.8 A 21.68 21.68 0 0 1  325.16 260.12 L 303.48 281.8 A 21.68 21.68 0 0 0 325.16 260.12" fill="#0b1d68"/><path d="M 325.15 281.8 A 21.68 21.68 0 0 1  346.83 260.12 L 325.15 281.8 A 21.68 21.68 0 0 0 346.83 260.12" fill="#163bd2"/><path d="M 520.25 303.47 A 43.35 43.35 0 0 1  563.6 260.12 L 520.25 303.47 A 43.35 43.35 0 0 0 563.6 260.12" fill="#4f101f"/><path d="M 606.95 303.47 A 43.35 43.35 0 0 1  650.3000000000001 260.12 L 606.95 303.47 A 43.35 43.35 0 0 0 650.3000000000001 260.12" fill="#a42241"/><path d="M 650.31 260.12 A 43.35 43.35 0 0 1  693.66 303.47 L 650.31 260.12 A 43.35 43.35 0 0 0 693.66 303.47" fill="#d02b52"/><rect x="823.723076923077" y="260.12307692307695" width="43.353846153846156" height="43.353846153846156" fill="#000000"/><path d="M 845.4 260.12 A 21.68 21.68 0 0 1  867.0799999999999 281.8 L 845.4 260.12 A 21.68 21.68 0 0 0 867.0799999999999 281.8" fill="#0e0305"/><rect x="953.7846153846154" y="260.12307692307695" width="43.353846153846156" height="43.353846153846156" fill="#000000"/><path d="M 975.46 281.8 A 21.68 21.68 0 0 1  997.14 260.12 L 975.46 281.8 A 21.68 21.68 0 0 0 997.14 260.12" fill="#07123f"/><path d="M 975.46 281.8 A 21.68 21.68 0 0 1  997.14 303.48 L 975.46 281.8 A 21.68 21.68 0 0 0 997.14 303.48" fill="#050d2e"/><rect x="0" y="303.4769230769231" width="43.353846153846156" height="43.353846153846156" fill="#000000"/><path d="M 0 325.16 A 21.68 21.68 0 0 1  21.68 303.48 L 0 325.16 A 21.68 21.68 0 0 0 21.68 303.48" fill="#c3284d"/><path d="M 21.68 325.16 A 21.68 21.68 0 0 1  43.36 303.48 L 21.68 325.16 A 21.68 21.68 0 0 0 43.36 303.48" fill="#183edf"/><path d="M 0 346.83 A 21.68 21.68 0 0 1  21.68 325.15 L 0 346.83 A 21.68 21.68 0 0 0 21.68 325.15" fill="#9c203e"/><path d="M 130.06 346.83000000000004 A 43.35 43.35 0 0 1  173.41 303.48 L 130.06 346.83000000000004 A 43.35 43.35 0 0 0 173.41 303.48" fill="#b52647"/><rect x="346.83076923076925" y="303.4769230769231" width="43.353846153846156" height="43.353846153846156" fill="#000000"/><path d="M 368.51 303.48 A 21.68 21.68 0 0 1  390.19 325.16 L 368.51 303.48 A 21.68 21.68 0 0 0 390.19 325.16" fill="#0a1b60"/><path d="M 346.83 325.15 A 21.68 21.68 0 0 1  368.51 346.83 L 346.83 325.15 A 21.68 21.68 0 0 0 368.51 346.83" fill="#08164d"/><path d="M 368.51 346.83 A 21.68 21.68 0 0 1  390.19 325.15 L 368.51 346.83 A 21.68 21.68 0 0 0 390.19 325.15" fill="#400d19"/><path d="M 433.54 303.48 A 43.35 43.35 0 0 1  476.89000000000004 346.83000000000004 L 433.54 303.48 A 43.35 43.35 0 0 0 476.89000000000004 346.83000000000004" fill="#030101"/><rect x="520.2461538461539" y="303.4769230769231" width="43.353846153846156" height="43.353846153846156" fill="#000000"/><path d="M 867.08 303.48 A 43.35 43.35 0 0 1  910.4300000000001 346.83000000000004 L 867.08 303.48 A 43.35 43.35 0 0 0 910.4300000000001 346.83000000000004" fill="#120407"/><path d="M 43.35 346.83 A 43.35 43.35 0 0 1  86.7 390.18 L 43.35 346.83 A 43.35 43.35 0 0 0 86.7 390.18" fill="#931f3a"/><path d="M 86.71 390.18 A 43.35 43.35 0 0 1  130.06 346.83 L 86.71 390.18 A 43.35 43.35 0 0 0 130.06 346.83" fill="#3c0c18"/><rect x="130.06153846153848" y="346.83076923076925" width="43.353846153846156" height="43.353846153846156" fill="#000000"/><rect x="216.76923076923077" y="346.83076923076925" width="43.353846153846156" height="43.353846153846156" fill="#000000"/><path d="M 238.45 368.51 A 21.68 21.68 0 0 1  260.13 346.83 L 238.45 368.51 A 21.68 21.68 0 0 0 260.13 346.83" fill="#050d2f"/><path d="M 303.48 390.18 A 43.35 43.35 0 0 1  346.83000000000004 346.83 L 303.48 390.18 A 43.35 43.35 0 0 0 346.83000000000004 346.83" fill="#091958"/><rect x="476.8923076923077" y="346.83076923076925" width="43.353846153846156" height="43.353846153846156" fill="#000000"/><path d="M 476.89 346.83 A 21.68 21.68 0 0 1  498.57 368.51 L 476.89 346.83 A 21.68 21.68 0 0 0 498.57 368.51" fill="#122ea6"/><path d="M 498.57 368.51 A 21.68 21.68 0 0 1  520.25 346.83 L 498.57 368.51 A 21.68 21.68 0 0 0 520.25 346.83" fill="#1c060b"/><rect x="780.3692307692309" y="346.83076923076925" width="43.353846153846156" height="43.353846153846156" fill="#000000"/><path d="M 802.05 368.51 A 21.68 21.68 0 0 1  823.7299999999999 346.83 L 802.05 368.51 A 21.68 21.68 0 0 0 823.7299999999999 346.83" fill="#b52648"/><path d="M 780.37 368.51 A 21.68 21.68 0 0 1  802.05 390.19 L 780.37 368.51 A 21.68 21.68 0 0 0 802.05 390.19" fill="#0e2686"/><path d="M 910.43 390.18 A 43.35 43.35 0 0 1  953.78 346.83 L 910.43 390.18 A 43.35 43.35 0 0 0 953.78 346.83" fill="#130408"/><path d="M 997.14 346.83 A 43.35 43.35 0 0 1  1040.49 390.18 L 997.14 346.83 A 43.35 43.35 0 0 0 1040.49 390.18" fill="#c4294e"/><path d="M 43.35 433.53000000000003 A 43.35 43.35 0 0 1  86.7 390.18 L 43.35 433.53000000000003 A 43.35 43.35 0 0 0 86.7 390.18" fill="#091959"/><rect x="173.41538461538462" y="390.1846153846154" width="43.353846153846156" height="43.353846153846156" fill="#000000"/><path d="M 173.42 411.86 A 21.68 21.68 0 0 1  195.1 433.54 L 173.42 411.86 A 21.68 21.68 0 0 0 195.1 433.54" fill="#340b15"/><rect x="303.4769230769231" y="390.1846153846154" width="43.353846153846156" height="43.353846153846156" fill="#000000"/><path d="M 303.48 411.86 A 21.68 21.68 0 0 1  325.16 390.18 L 303.48 411.86 A 21.68 21.68 0 0 0 325.16 390.18" fill="#2d0912"/><path d="M 325.15 411.86 A 21.68 21.68 0 0 1  346.83 390.18 L 325.15 411.86 A 21.68 21.68 0 0 0 346.83 390.18" fill="#380c16"/><path d="M 303.48 411.86 A 21.68 21.68 0 0 1  325.16 433.54 L 303.48 411.86 A 21.68 21.68 0 0 0 325.16 433.54" fill="#0f2991"/><path d="M 346.83 433.53000000000003 A 43.35 43.35 0 0 1  390.18 390.18 L 346.83 433.53000000000003 A 43.35 43.35 0 0 0 390.18 390.18" fill="#971f3c"/><path d="M 476.89 433.53000000000003 A 43.35 43.35 0 0 1  520.24 390.18 L 476.89 433.53000000000003 A 43.35 43.35 0 0 0 520.24 390.18" fill="#76182f"/><rect x="520.2461538461539" y="390.1846153846154" width="43.353846153846156" height="43.353846153846156" fill="#000000"/><path d="M 520.25 411.86 A 21.68 21.68 0 0 1  541.93 390.18 L 520.25 411.86 A 21.68 21.68 0 0 0 541.93 390.18" fill="#280810"/><path d="M 520.25 433.54 A 21.68 21.68 0 0 1  541.93 411.86 L 520.25 433.54 A 21.68 21.68 0 0 0 541.93 411.86" fill="#040a24"/><path d="M 541.92 433.54 A 21.68 21.68 0 0 1  563.5999999999999 411.86 L 541.92 433.54 A 21.68 21.68 0 0 0 563.5999999999999 411.86" fill="#1333b5"/><rect x="737.0153846153846" y="390.1846153846154" width="43.353846153846156" height="43.353846153846156" fill="#000000"/><path d="M 737.02 411.86 A 21.68 21.68 0 0 1  758.6999999999999 390.18 L 737.02 411.86 A 21.68 21.68 0 0 0 758.6999999999999 390.18" fill="#0d237c"/><path d="M 780.37 390.18 A 43.35 43.35 0 0 1  823.72 433.53000000000003 L 780.37 390.18 A 43.35 43.35 0 0 0 823.72 433.53000000000003" fill="#8a1d37"/><path d="M 823.72 390.18 A 43.35 43.35 0 0 1  867.07 433.53000000000003 L 823.72 390.18 A 43.35 43.35 0 0 0 867.07 433.53000000000003" fill="#74182e"/><path d="M 867.08 433.53000000000003 A 43.35 43.35 0 0 1  910.4300000000001 390.18 L 867.08 433.53000000000003 A 43.35 43.35 0 0 0 910.4300000000001 390.18" fill="#18050a"/><path d="M 997.14 390.18 A 43.35 43.35 0 0 1  1040.49 433.53000000000003 L 997.14 390.18 A 43.35 43.35 0 0 0 1040.49 433.53000000000003" fill="#cc2a51"/><path d="M 86.71 433.54 A 43.35 43.35 0 0 1  130.06 476.89000000000004 L 86.71 433.54 A 43.35 43.35 0 0 0 130.06 476.89000000000004" fill="#173dd9"/><path d="M 173.42 476.89000000000004 A 43.35 43.35 0 0 1  216.76999999999998 433.54 L 173.42 476.89000000000004 A 43.35 43.35 0 0 0 216.76999999999998 433.54" fill="#163bd2"/><rect x="216.76923076923077" y="433.53846153846155" width="43.353846153846156" height="43.353846153846156" fill="#000000"/><rect x="390.1846153846154" y="433.53846153846155" width="43.353846153846156" height="43.353846153846156" fill="#000000"/><path d="M 411.86 455.22 A 21.68 21.68 0 0 1  433.54 476.90000000000003 L 411.86 455.22 A 21.68 21.68 0 0 0 433.54 476.90000000000003" fill="#091753"/><rect x="606.9538461538461" y="433.53846153846155" width="43.353846153846156" height="43.353846153846156" fill="#000000"/><path d="M 606.95 433.54 A 21.68 21.68 0 0 1  628.63 455.22 L 606.95 433.54 A 21.68 21.68 0 0 0 628.63 455.22" fill="#081449"/><path d="M 606.95 455.22 A 21.68 21.68 0 0 1  628.63 476.90000000000003 L 606.95 455.22 A 21.68 21.68 0 0 0 628.63 476.90000000000003" fill="#0d237c"/><path d="M 628.63 476.90000000000003 A 21.68 21.68 0 0 1  650.31 455.22 L 628.63 476.90000000000003 A 21.68 21.68 0 0 0 650.31 455.22" fill="#511120"/><path d="M 650.31 476.89000000000004 A 43.35 43.35 0 0 1  693.66 433.54 L 650.31 476.89000000000004 A 43.35 43.35 0 0 0 693.66 433.54" fill="#23070e"/><rect x="780.3692307692309" y="433.53846153846155" width="43.353846153846156" height="43.353846153846156" fill="#000000"/><path d="M 802.05 455.22 A 21.68 21.68 0 0 1  823.7299999999999 433.54 L 802.05 455.22 A 21.68 21.68 0 0 0 823.7299999999999 433.54" fill="#cb2a50"/><path d="M 780.37 476.90000000000003 A 21.68 21.68 0 0 1  802.05 455.22 L 780.37 476.90000000000003 A 21.68 21.68 0 0 0 802.05 455.22" fill="#173dd9"/><rect x="823.723076923077" y="433.53846153846155" width="43.353846153846156" height="43.353846153846156" fill="#000000"/><path d="M 823.72 476.90000000000003 A 21.68 21.68 0 0 1  845.4 455.22 L 823.72 476.90000000000003 A 21.68 21.68 0 0 0 845.4 455.22" fill="#1230aa"/><rect x="1040.4923076923078" y="433.53846153846155" width="43.353846153846156" height="43.353846153846156" fill="#000000"/><path d="M 1040.49 476.90000000000003 A 21.68 21.68 0 0 1  1062.17 455.22 L 1040.49 476.90000000000003 A 21.68 21.68 0 0 0 1062.17 455.22" fill="#0d237b"/><path d="M 86.71 520.24 A 43.35 43.35 0 0 1  130.06 476.89 L 86.71 520.24 A 43.35 43.35 0 0 0 130.06 476.89" fill="#020513"/><path d="M 737.02 520.24 A 43.35 43.35 0 0 1  780.37 476.89 L 737.02 520.24 A 43.35 43.35 0 0 0 780.37 476.89" fill="#501120"/><rect x="867.0769230769231" y="476.8923076923077" width="43.353846153846156" height="43.353846153846156" fill="#000000"/><rect x="953.7846153846154" y="476.8923076923077" width="43.353846153846156" height="43.353846153846156" fill="#000000"/><path d="M 975.46 476.89 A 21.68 21.68 0 0 1  997.14 498.57 L 975.46 476.89 A 21.68 21.68 0 0 0 997.14 498.57" fill="#370b16"/><path d="M 953.78 498.57 A 21.68 21.68 0 0 1  975.4599999999999 520.25 L 953.78 498.57 A 21.68 21.68 0 0 0 975.4599999999999 520.25" fill="#901e39"/><path d="M 975.46 520.25 A 21.68 21.68 0 0 1  997.14 498.57 L 975.46 520.25 A 21.68 21.68 0 0 0 997.14 498.57" fill="#112da1"/><path d="M 0 563.6 A 43.35 43.35 0 0 1  43.35 520.25 L 0 563.6 A 43.35 43.35 0 0 0 43.35 520.25" fill="#fc3464"/><path d="M 86.71 520.25 A 43.35 43.35 0 0 1  130.06 563.6 L 86.71 520.25 A 43.35 43.35 0 0 0 130.06 563.6" fill="#511120"/><path d="M 303.48 563.6 A 43.35 43.35 0 0 1  346.83000000000004 520.25 L 303.48 563.6 A 43.35 43.35 0 0 0 346.83000000000004 520.25" fill="#1536c3"/><rect x="390.1846153846154" y="520.2461538461539" width="43.353846153846156" height="43.353846153846156" fill="#000000"/><path d="M 411.86 520.25 A 21.68 21.68 0 0 1  433.54 541.93 L 411.86 520.25 A 21.68 21.68 0 0 0 433.54 541.93" fill="#06103a"/><path d="M 411.86 541.92 A 21.68 21.68 0 0 1  433.54 563.5999999999999 L 411.86 541.92 A 21.68 21.68 0 0 0 433.54 563.5999999999999" fill="#9b203d"/><rect x="563.6" y="520.2461538461539" width="43.353846153846156" height="43.353846153846156" fill="#000000"/><path d="M 585.28 541.93 A 21.68 21.68 0 0 1  606.9599999999999 520.25 L 585.28 541.93 A 21.68 21.68 0 0 0 606.9599999999999 520.25" fill="#0c2071"/><path d="M 563.6 563.5999999999999 A 21.68 21.68 0 0 1  585.28 541.92 L 563.6 563.5999999999999 A 21.68 21.68 0 0 0 585.28 541.92" fill="#831b34"/><path d="M 585.28 563.5999999999999 A 21.68 21.68 0 0 1  606.9599999999999 541.92 L 585.28 563.5999999999999 A 21.68 21.68 0 0 0 606.9599999999999 541.92" fill="#f23260"/><path d="M 693.66 520.25 A 43.35 43.35 0 0 1  737.01 563.6 L 693.66 520.25 A 43.35 43.35 0 0 0 737.01 563.6" fill="#102992"/><rect x="780.3692307692309" y="520.2461538461539" width="43.353846153846156" height="43.353846153846156" fill="#000000"/><path d="M 780.37 520.25 A 21.68 21.68 0 0 1  802.05 541.93 L 780.37 520.25 A 21.68 21.68 0 0 0 802.05 541.93" fill="#5b1324"/><path d="M 802.05 541.93 A 21.68 21.68 0 0 1  823.7299999999999 520.25 L 802.05 541.93 A 21.68 21.68 0 0 0 823.7299999999999 520.25" fill="#cb2a50"/><path d="M 802.05 541.92 A 21.68 21.68 0 0 1  823.7299999999999 563.5999999999999 L 802.05 541.92 A 21.68 21.68 0 0 0 823.7299999999999 563.5999999999999" fill="#1333b6"/><path d="M 953.78 520.25 A 43.35 43.35 0 0 1  997.13 563.6 L 953.78 520.25 A 43.35 43.35 0 0 0 997.13 563.6" fill="#af2445"/></g></svg>