<?xml version="1.0" standalone="no"?><svg xmlns="http://www.w3.org/2000/svg" viewBox="0 0 1440 320"><path fill="#0099ff" fill-opacity="1" d="M0,320L18.5,293.3C36.9,267,74,213,111,202.7C147.7,192,185,224,222,229.3C258.5,235,295,213,332,176C369.2,139,406,85,443,64C480,43,517,53,554,101.3C590.8,149,628,235,665,224C701.5,213,738,107,775,58.7C812.3,11,849,21,886,26.7C923.1,32,960,32,997,48C1033.8,64,1071,96,1108,96C1144.6,96,1182,64,1218,85.3C1255.4,107,1292,181,1329,181.3C1366.2,181,1403,107,1422,69.3L1440,32L1440,320L1421.5,320C1403.1,320,1366,320,1329,320C1292.3,320,1255,320,1218,320C1181.5,320,1145,320,1108,320C1070.8,320,1034,320,997,320C960,320,923,320,886,320C849.2,320,812,320,775,320C738.5,320,702,320,665,320C627.7,320,591,320,554,320C516.9,320,480,320,443,320C406.2,320,369,320,332,320C295.4,320,258,320,222,320C184.6,320,148,320,111,320C73.8,320,37,320,18,320L0,320Z"></path></svg>