<svg width="1920" height="1080" viewBox="0 0 1920 1080" xmlns="http://www.w3.org/2000/svg"><rect width="1920" height="1080" fill="#87ceeb"/><path d="M 0,1080 C 0,1080 0,180 0,180 C 59.93697428035284,155.14568193986042 119.87394856070568,130.29136387972088 167,132 C 214.12605143929432,133.70863612027912 248.44118003753016,161.9802264209769 291,174 C 333.55881996246984,186.0197735790231 384.36133128917373,181.78773043637156 440,204 C 495.63866871082627,226.21226956362844 556.113494805775,274.8688518335368 597,246 C 637.886505194225,217.13114816646322 659.184689487726,110.73686222948123 712,112 C 764.815310512274,113.26313777051877 849.147747243321,222.1836992485383 906,236 C 962.852252756679,249.8163007514617 992.2243215389901,168.52834077636552 1033,150 C 1073.7756784610099,131.47165922363448 1125.9549666007185,175.70293764599967 1184,180 C 1242.0450333992815,184.29706235400033 1305.9558120581346,148.65990863963592 1346,138 C 1386.0441879418654,127.34009136036408 1402.221785166743,141.65742779545667 1450,166 C 1497.778214833257,190.34257220454333 1577.1570472748938,224.7103801785374 1633,222 C 1688.8429527251062,219.2896198214626 1721.1500257336822,179.5010514903938 1774,151 C 1826.8499742663178,122.49894850960621 1900.2428497903763,105.28541385988748 1928,112 C 1955.7571502096237,118.71458614011252 1937.8785751048117,149.35729307005624 1920,180 C 1920,180 1920,1080 1920,1080 Z" fill="#003c5f" opacity="0.09999999999999999"/><path d="M 0,1080 C 0,1080 0,360 0,360 C 60.12326440721709,332.859482238581 120.24652881443419,305.71896447716205 173,307 C 225.75347118556581,308.28103552283795 271.13714914948036,337.9836243299329 315,352 C 358.86285085051964,366.0163756700671 401.2048745876444,364.34653820310626 452,376 C 502.7951254123556,387.65346179689374 562.0433524999419,412.630222857642 604,400 C 645.9566475000581,387.369777142358 670.6217154125885,337.1325703663258 717,325 C 763.3782845874115,312.8674296336742 831.4697858497042,338.83949567705474 880,329 C 928.5302141502958,319.16050432294526 957.4991411885951,273.5094469254552 1007,294 C 1056.500858811405,314.4905530745448 1126.533649395916,401.12271662112454 1182,425 C 1237.466350604084,448.87728337887546 1278.3662612277412,409.99968659004657 1322,391 C 1365.6337387722588,372.00031340995343 1412.001305693119,372.8785370186892 1467,365 C 1521.998694306881,357.1214629813108 1585.6285159997824,340.48616533519674 1642,342 C 1698.3714840002176,343.51383466480326 1747.4846303077509,363.17680164052393 1791,364 C 1834.5153696922491,364.82319835947607 1872.432962769214,346.8066281027074 1893,343 C 1913.567037230786,339.1933718972926 1916.783518615393,349.59668594864627 1920,360 C 1920,360 1920,1080 1920,1080 Z" fill="#003c5f" opacity="0.19999999999999998"/><path d="M 0,1080 C 0,1080 0,540 0,540 C 50.05100535781129,580.2535310059874 100.10201071562258,620.5070620119748 156,597 C 211.89798928437742,573.4929379880252 273.64296249532094,486.22528295808854 317,488 C 360.35703750467906,489.77471704191146 385.32613930309356,580.5918061556712 437,601 C 488.67386069690644,621.4081938443288 567.0524802923052,571.4074924192264 616,541 C 664.9475197076948,510.5925075807736 684.4639395276857,499.778224167423 719,519 C 753.5360604723143,538.221775832577 803.091761596952,587.4796109110814 863,600 C 922.908238403048,612.5203890889186 993.1690140845069,588.3033321882514 1046,568 C 1098.830985915493,547.6966678117486 1134.2321820650202,531.3070603359129 1177,542 C 1219.7678179349798,552.6929396640871 1269.9022576554128,590.4684264680974 1328,581 C 1386.0977423445872,571.5315735319026 1452.1587873133287,514.8192337916977 1502,517 C 1551.8412126866713,519.1807662083023 1585.4625930912728,580.254638365112 1628,571 C 1670.5374069087272,561.745361634888 1721.9908403215804,482.1622127478544 1779,478 C 1836.0091596784196,473.8377872521456 1898.5740456224057,545.0965106434702 1923,568 C 1947.4259543775943,590.9034893565298 1933.7129771887971,565.451744678265 1920,540 C 1920,540 1920,1080 1920,1080 Z" fill="#003c5f" opacity="0.3"/><path d="M 0,1080 C 0,1080 0,720 0,720 C 59.536002150809864,699.0975959957655 119.07200430161973,678.1951919915308 160,666 C 200.92799569838027,653.8048080084692 223.24798494433088,650.3168280296421 274,682 C 324.7520150556691,713.6831719703579 403.9360559210567,780.537495889901 453,774 C 502.0639440789433,767.462504110099 521.0077913714424,687.533188410754 569,663 C 616.9922086285576,638.466811589246 694.0327785931737,669.329750467083 744,695 C 793.9672214068263,720.670249532917 816.8610942558631,741.1478097209139 860,756 C 903.1389057441369,770.8521902790861 966.5228443833737,780.0790106492615 1017,768 C 1067.4771556166263,755.9209893507385 1105.047528210643,722.5361476820405 1160,697 C 1214.952471789357,671.4638523179595 1287.2870427740543,653.776398622577 1339,664 C 1390.7129572259457,674.223601377423 1421.80430069314,712.3582578276519 1463,729 C 1504.19569930686,745.6417421723481 1555.4957544533854,740.7905700668151 1609,728 C 1662.5042455466146,715.2094299331849 1718.2126814933192,694.4794619050882 1773,695 C 1827.7873185066808,695.5205380949118 1881.6535195733375,717.2915823128319 1906,725 C 1930.3464804266625,732.7084176871681 1925.1732402133312,726.354208843584 1920,720 C 1920,720 1920,1080 1920,1080 Z" fill="#003c5f" opacity="0.39999999999999997"/><path d="M 0,1080 C 0,1080 0,900 0,900 C 41.01620411218384,891.9746454072974 82.03240822436769,883.9492908145947 128,879 C 173.96759177563231,874.0507091854053 224.886571214713,872.1774821489186 284,863 C 343.113428785287,853.8225178510814 410.4213069167805,837.3407805897313 457,845 C 503.5786930832195,852.6592194102687 529.428201118165,884.4593954921567 577,901 C 624.571798881835,917.5406045078433 693.8658886105596,918.8216374416427 752,917 C 810.1341113894404,915.1783625583573 857.1082444395964,910.2540547412727 904,902 C 950.8917555604036,893.7459452587273 997.7011336310547,882.1621435932668 1048,890 C 1098.2988663689453,897.8378564067332 1152.087221036185,925.0973708856599 1204,915 C 1255.912778963815,904.9026291143401 1305.9499822242049,857.448372864094 1349,848 C 1392.0500177757951,838.551627135906 1428.112850066995,867.1091376579637 1472,893 C 1515.887149933005,918.8908623420363 1567.5986175078158,942.115076504051 1612,920 C 1656.4013824921842,897.884923495949 1693.4926799017417,830.4305563258324 1753,832 C 1812.5073200982583,833.5694436741676 1894.4306628852166,904.1626981926194 1926,927 C 1957.5693371147834,949.8373018073806 1938.7846685573918,924.9186509036904 1920,900 C 1920,900 1920,1080 1920,1080 Z" fill="#003c5f" opacity="0.49999999999999994"/></svg>